<?xml version="1.0" encoding="UTF-8" standalone="no"?>
<!DOCTYPE svg PUBLIC "-//W3C//DTD SVG 1.1//EN"
 "http://www.w3.org/Graphics/SVG/1.1/DTD/svg11.dtd">
<!-- Generated by graphviz version 2.47.0 (20210316.0004)
 -->
<!-- Title: dependencies Pages: 1 -->
<svg width="658pt" height="211pt"
 viewBox="0.00 0.00 658.00 211.00" xmlns="http://www.w3.org/2000/svg" xmlns:xlink="http://www.w3.org/1999/xlink">
<g id="graph0" class="graph" transform="scale(1 1) rotate(0) translate(4 207)">
<title>dependencies</title>
<polygon fill="white" stroke="transparent" points="-4,4 -4,-207 654,-207 654,4 -4,4"/>
<text text-anchor="start" x="304.01" y="-42.4" font-family="Times-12" font-weight="bold" font-size="14.00">Legend</text>
<polygon fill="#ffffb3" stroke="transparent" points="91,-10 91,-30 111,-30 111,-10 91,-10"/>
<text text-anchor="start" x="114.63" y="-15.4" font-family="Times-12" font-size="14.00"> &#160;Declarations</text>
<polygon fill="#8dd3c7" stroke="transparent" points="204,-10 204,-30 224,-30 224,-10 204,-10"/>
<text text-anchor="start" x="227.73" y="-15.4" font-family="Times-12" font-size="14.00"> &#160;Module</text>
<polygon fill="#80b1d3" stroke="transparent" points="290,-10 290,-30 310,-30 310,-10 290,-10"/>
<text text-anchor="start" x="313.78" y="-15.4" font-family="Times-12" font-size="14.00"> &#160;Bootstrap</text>
<polygon fill="#fdb462" stroke="transparent" points="387,-10 387,-30 407,-30 407,-10 387,-10"/>
<text text-anchor="start" x="410.67" y="-15.4" font-family="Times-12" font-size="14.00"> &#160;Providers</text>
<polygon fill="#fb8072" stroke="transparent" points="483,-10 483,-30 503,-30 503,-10 483,-10"/>
<text text-anchor="start" x="506.73" y="-15.4" font-family="Times-12" font-size="14.00"> &#160;Exports</text>
<g id="clust1" class="cluster">
<title>cluster_SharedModule</title>
<polygon fill="none" stroke="black" stroke-dasharray="1,5" points="8,-70 8,-195 642,-195 642,-70 8,-70"/>
</g>
<g id="clust5" class="cluster">
<title>cluster_SharedModule_imports</title>
<polygon fill="none" stroke="black" points="350,-78 350,-130 634,-130 634,-78 350,-78"/>
</g>
<g id="clust2" class="cluster">
<title>cluster_SharedModule_declarations</title>
<polygon fill="none" stroke="black" points="16,-78 16,-130 342,-130 342,-78 16,-78"/>
</g>
<!-- Base64ToImagePipe -->
<g id="node1" class="node">
<title>Base64ToImagePipe</title>
<polygon fill="#ffffb3" stroke="black" points="334.13,-122 201.87,-122 201.87,-86 334.13,-86 334.13,-122"/>
<text text-anchor="middle" x="268" y="-99.8" font-family="Times,serif" font-size="14.00">Base64ToImagePipe</text>
</g>
<!-- SharedModule -->
<g id="node3" class="node">
<title>SharedModule</title>
<polygon fill="#8dd3c7" stroke="black" points="398.42,-187 395.42,-191 374.42,-191 371.42,-187 299.58,-187 299.58,-151 398.42,-151 398.42,-187"/>
<text text-anchor="middle" x="349" y="-164.8" font-family="Times,serif" font-size="14.00">SharedModule</text>
</g>
<!-- Base64ToImagePipe&#45;&gt;SharedModule -->
<g id="edge1" class="edge">
<title>Base64ToImagePipe&#45;&gt;SharedModule</title>
<path fill="none" stroke="black" d="M317.05,-122.11C317.05,-122.11 317.05,-140.99 317.05,-140.99"/>
<polygon fill="black" stroke="black" points="313.55,-140.99 317.05,-150.99 320.55,-140.99 313.55,-140.99"/>
</g>
<!-- Error404PageComponent -->
<g id="node2" class="node">
<title>Error404PageComponent</title>
<polygon fill="#ffffb3" stroke="black" points="183.58,-122 24.42,-122 24.42,-86 183.58,-86 183.58,-122"/>
<text text-anchor="middle" x="104" y="-99.8" font-family="Times,serif" font-size="14.00">Error404PageComponent</text>
</g>
<!-- Error404PageComponent&#45;&gt;SharedModule -->
<g id="edge2" class="edge">
<title>Error404PageComponent&#45;&gt;SharedModule</title>
<path fill="none" stroke="black" d="M104,-122.11C104,-141.34 104,-169 104,-169 104,-169 289.72,-169 289.72,-169"/>
<polygon fill="black" stroke="black" points="289.72,-172.5 299.72,-169 289.72,-165.5 289.72,-172.5"/>
</g>
<!-- MaterialModule -->
<g id="node4" class="node">
<title>MaterialModule</title>
<polygon fill="#8dd3c7" stroke="black" points="626.47,-122 623.47,-126 602.47,-126 599.47,-122 519.53,-122 519.53,-86 626.47,-86 626.47,-122"/>
<text text-anchor="middle" x="573" y="-99.8" font-family="Times,serif" font-size="14.00">MaterialModule</text>
</g>
<!-- MaterialModule&#45;&gt;SharedModule -->
<g id="edge3" class="edge">
<title>MaterialModule&#45;&gt;SharedModule</title>
<path fill="none" stroke="black" d="M573,-122.11C573,-141.34 573,-169 573,-169 573,-169 408.44,-169 408.44,-169"/>
<polygon fill="black" stroke="black" points="408.44,-165.5 398.44,-169 408.44,-172.5 408.44,-165.5"/>
</g>
<!-- SharedRoutingModule -->
<g id="node5" class="node">
<title>SharedRoutingModule</title>
<polygon fill="#8dd3c7" stroke="black" points="501.54,-122 498.54,-126 477.54,-126 474.54,-122 358.46,-122 358.46,-86 501.54,-86 501.54,-122"/>
<text text-anchor="middle" x="430" y="-99.8" font-family="Times,serif" font-size="14.00">SharedRoutingModule</text>
</g>
<!-- SharedRoutingModule&#45;&gt;SharedModule -->
<g id="edge4" class="edge">
<title>SharedRoutingModule&#45;&gt;SharedModule</title>
<path fill="none" stroke="black" d="M378.22,-122.11C378.22,-122.11 378.22,-140.99 378.22,-140.99"/>
<polygon fill="black" stroke="black" points="374.72,-140.99 378.22,-150.99 381.72,-140.99 374.72,-140.99"/>
</g>
</g>
</svg>
