<?xml version="1.0" encoding="UTF-8" standalone="no"?>
<!DOCTYPE svg PUBLIC "-//W3C//DTD SVG 1.1//EN"
 "http://www.w3.org/Graphics/SVG/1.1/DTD/svg11.dtd">
<!-- Generated by graphviz version 2.47.0 (20210316.0004)
 -->
<!-- Title: dependencies Pages: 1 -->
<svg width="4013pt" height="211pt"
 viewBox="0.00 0.00 4013.00 211.00" xmlns="http://www.w3.org/2000/svg" xmlns:xlink="http://www.w3.org/1999/xlink">
<g id="graph0" class="graph" transform="scale(1 1) rotate(0) translate(4 207)">
<title>dependencies</title>
<polygon fill="white" stroke="transparent" points="-4,4 -4,-207 4009,-207 4009,4 -4,4"/>
<text text-anchor="start" x="1981.51" y="-42.4" font-family="Times-12" font-weight="bold" font-size="14.00">Legend</text>
<polygon fill="#ffffb3" stroke="transparent" points="1768.5,-10 1768.5,-30 1788.5,-30 1788.5,-10 1768.5,-10"/>
<text text-anchor="start" x="1792.13" y="-15.4" font-family="Times-12" font-size="14.00"> &#160;Declarations</text>
<polygon fill="#8dd3c7" stroke="transparent" points="1881.5,-10 1881.5,-30 1901.5,-30 1901.5,-10 1881.5,-10"/>
<text text-anchor="start" x="1905.23" y="-15.4" font-family="Times-12" font-size="14.00"> &#160;Module</text>
<polygon fill="#80b1d3" stroke="transparent" points="1967.5,-10 1967.5,-30 1987.5,-30 1987.5,-10 1967.5,-10"/>
<text text-anchor="start" x="1991.28" y="-15.4" font-family="Times-12" font-size="14.00"> &#160;Bootstrap</text>
<polygon fill="#fdb462" stroke="transparent" points="2064.5,-10 2064.5,-30 2084.5,-30 2084.5,-10 2064.5,-10"/>
<text text-anchor="start" x="2088.17" y="-15.4" font-family="Times-12" font-size="14.00"> &#160;Providers</text>
<polygon fill="#fb8072" stroke="transparent" points="2160.5,-10 2160.5,-30 2180.5,-30 2180.5,-10 2160.5,-10"/>
<text text-anchor="start" x="2184.23" y="-15.4" font-family="Times-12" font-size="14.00"> &#160;Exports</text>
<g id="clust1" class="cluster">
<title>cluster_AdminModule</title>
<polygon fill="none" stroke="black" stroke-dasharray="1,5" points="8,-70 8,-195 3997,-195 3997,-70 8,-70"/>
</g>
<g id="clust25" class="cluster">
<title>cluster_AdminModule_imports</title>
<polygon fill="none" stroke="black" points="3705,-78 3705,-130 3989,-130 3989,-78 3705,-78"/>
</g>
<g id="clust2" class="cluster">
<title>cluster_AdminModule_declarations</title>
<polygon fill="none" stroke="black" points="16,-78 16,-130 3697,-130 3697,-78 16,-78"/>
</g>
<!-- AddChampionComponent -->
<g id="node1" class="node">
<title>AddChampionComponent</title>
<polygon fill="#ffffb3" stroke="black" points="3688.77,-122 3525.23,-122 3525.23,-86 3688.77,-86 3688.77,-122"/>
<text text-anchor="middle" x="3607" y="-99.8" font-family="Times,serif" font-size="14.00">AddChampionComponent</text>
</g>
<!-- AdminModule -->
<g id="node23" class="node">
<title>AdminModule</title>
<polygon fill="#8dd3c7" stroke="black" points="2102.44,-187 2099.44,-191 2078.44,-191 2075.44,-187 2003.56,-187 2003.56,-151 2102.44,-151 2102.44,-187"/>
<text text-anchor="middle" x="2053" y="-164.8" font-family="Times,serif" font-size="14.00">AdminModule</text>
</g>
<!-- AddChampionComponent&#45;&gt;AdminModule -->
<g id="edge1" class="edge">
<title>AddChampionComponent&#45;&gt;AdminModule</title>
<path fill="none" stroke="black" d="M3607,-122.29C3607,-144.21 3607,-178 3607,-178 3607,-178 2112.51,-178 2112.51,-178"/>
<polygon fill="black" stroke="black" points="2112.51,-174.5 2102.51,-178 2112.51,-181.5 2112.51,-174.5"/>
</g>
<!-- AddObjectComponent -->
<g id="node2" class="node">
<title>AddObjectComponent</title>
<polygon fill="#ffffb3" stroke="black" points="3507.26,-122 3364.74,-122 3364.74,-86 3507.26,-86 3507.26,-122"/>
<text text-anchor="middle" x="3436" y="-99.8" font-family="Times,serif" font-size="14.00">AddObjectComponent</text>
</g>
<!-- AddObjectComponent&#45;&gt;AdminModule -->
<g id="edge2" class="edge">
<title>AddObjectComponent&#45;&gt;AdminModule</title>
<path fill="none" stroke="black" d="M3436,-122.28C3436,-143.32 3436,-175 3436,-175 3436,-175 2112.22,-175 2112.22,-175"/>
<polygon fill="black" stroke="black" points="2112.22,-171.5 2102.22,-175 2112.22,-178.5 2112.22,-171.5"/>
</g>
<!-- AddRuneComponent -->
<g id="node3" class="node">
<title>AddRuneComponent</title>
<polygon fill="#ffffb3" stroke="black" points="3346.49,-122 3211.51,-122 3211.51,-86 3346.49,-86 3346.49,-122"/>
<text text-anchor="middle" x="3279" y="-99.8" font-family="Times,serif" font-size="14.00">AddRuneComponent</text>
</g>
<!-- AddRuneComponent&#45;&gt;AdminModule -->
<g id="edge3" class="edge">
<title>AddRuneComponent&#45;&gt;AdminModule</title>
<path fill="none" stroke="black" d="M3279,-122.22C3279,-142.37 3279,-172 3279,-172 3279,-172 2112.58,-172 2112.58,-172"/>
<polygon fill="black" stroke="black" points="2112.58,-168.5 2102.58,-172 2112.58,-175.5 2112.58,-168.5"/>
</g>
<!-- AddSpellComponent -->
<g id="node4" class="node">
<title>AddSpellComponent</title>
<polygon fill="#ffffb3" stroke="black" points="3193.22,-122 3058.78,-122 3058.78,-86 3193.22,-86 3193.22,-122"/>
<text text-anchor="middle" x="3126" y="-99.8" font-family="Times,serif" font-size="14.00">AddSpellComponent</text>
</g>
<!-- AddSpellComponent&#45;&gt;AdminModule -->
<g id="edge4" class="edge">
<title>AddSpellComponent&#45;&gt;AdminModule</title>
<path fill="none" stroke="black" d="M3126,-122.11C3126,-141.34 3126,-169 3126,-169 3126,-169 2112.25,-169 2112.25,-169"/>
<polygon fill="black" stroke="black" points="2112.25,-165.5 2102.25,-169 2112.25,-172.5 2112.25,-165.5"/>
</g>
<!-- AddUserComponent -->
<g id="node5" class="node">
<title>AddUserComponent</title>
<polygon fill="#ffffb3" stroke="black" points="3040.87,-122 2909.13,-122 2909.13,-86 3040.87,-86 3040.87,-122"/>
<text text-anchor="middle" x="2975" y="-99.8" font-family="Times,serif" font-size="14.00">AddUserComponent</text>
</g>
<!-- AddUserComponent&#45;&gt;AdminModule -->
<g id="edge5" class="edge">
<title>AddUserComponent&#45;&gt;AdminModule</title>
<path fill="none" stroke="black" d="M2975,-122.22C2975,-140.83 2975,-167 2975,-167 2975,-167 2112.24,-167 2112.24,-167"/>
<polygon fill="black" stroke="black" points="2112.24,-163.5 2102.24,-167 2112.24,-170.5 2112.24,-163.5"/>
</g>
<!-- Base64ToImagePipe -->
<g id="node6" class="node">
<title>Base64ToImagePipe</title>
<polygon fill="#ffffb3" stroke="black" points="2891.13,-122 2758.87,-122 2758.87,-86 2891.13,-86 2891.13,-122"/>
<text text-anchor="middle" x="2825" y="-99.8" font-family="Times,serif" font-size="14.00">Base64ToImagePipe</text>
</g>
<!-- Base64ToImagePipe&#45;&gt;AdminModule -->
<g id="edge6" class="edge">
<title>Base64ToImagePipe&#45;&gt;AdminModule</title>
<path fill="none" stroke="black" d="M2825,-122.02C2825,-139.37 2825,-163 2825,-163 2825,-163 2112.47,-163 2112.47,-163"/>
<polygon fill="black" stroke="black" points="2112.47,-159.5 2102.47,-163 2112.47,-166.5 2112.47,-159.5"/>
</g>
<!-- DeleteChampionComponent -->
<g id="node7" class="node">
<title>DeleteChampionComponent</title>
<polygon fill="#ffffb3" stroke="black" points="2741.2,-122 2564.8,-122 2564.8,-86 2741.2,-86 2741.2,-122"/>
<text text-anchor="middle" x="2653" y="-99.8" font-family="Times,serif" font-size="14.00">DeleteChampionComponent</text>
</g>
<!-- DeleteChampionComponent&#45;&gt;AdminModule -->
<g id="edge7" class="edge">
<title>DeleteChampionComponent&#45;&gt;AdminModule</title>
<path fill="none" stroke="black" d="M2653,-122.03C2653,-138.4 2653,-160 2653,-160 2653,-160 2112.36,-160 2112.36,-160"/>
<polygon fill="black" stroke="black" points="2112.36,-156.5 2102.36,-160 2112.36,-163.5 2112.36,-156.5"/>
</g>
<!-- DeleteObjectComponent -->
<g id="node8" class="node">
<title>DeleteObjectComponent</title>
<polygon fill="#ffffb3" stroke="black" points="2546.68,-122 2391.32,-122 2391.32,-86 2546.68,-86 2546.68,-122"/>
<text text-anchor="middle" x="2469" y="-99.8" font-family="Times,serif" font-size="14.00">DeleteObjectComponent</text>
</g>
<!-- DeleteObjectComponent&#45;&gt;AdminModule -->
<g id="edge8" class="edge">
<title>DeleteObjectComponent&#45;&gt;AdminModule</title>
<path fill="none" stroke="black" d="M2469,-122.24C2469,-137.57 2469,-157 2469,-157 2469,-157 2112.35,-157 2112.35,-157"/>
<polygon fill="black" stroke="black" points="2112.35,-153.5 2102.35,-157 2112.35,-160.5 2112.35,-153.5"/>
</g>
<!-- DeleteRuneComponent -->
<g id="node9" class="node">
<title>DeleteRuneComponent</title>
<polygon fill="#ffffb3" stroke="black" points="2373.92,-122 2226.08,-122 2226.08,-86 2373.92,-86 2373.92,-122"/>
<text text-anchor="middle" x="2300" y="-99.8" font-family="Times,serif" font-size="14.00">DeleteRuneComponent</text>
</g>
<!-- DeleteRuneComponent&#45;&gt;AdminModule -->
<g id="edge9" class="edge">
<title>DeleteRuneComponent&#45;&gt;AdminModule</title>
<path fill="none" stroke="black" d="M2300,-122.05C2300,-136.37 2300,-154 2300,-154 2300,-154 2112.39,-154 2112.39,-154"/>
<polygon fill="black" stroke="black" points="2112.39,-150.5 2102.39,-154 2112.39,-157.5 2112.39,-150.5"/>
</g>
<!-- DeleteSpellComponent -->
<g id="node10" class="node">
<title>DeleteSpellComponent</title>
<polygon fill="#ffffb3" stroke="black" points="2208.14,-122 2061.86,-122 2061.86,-86 2208.14,-86 2208.14,-122"/>
<text text-anchor="middle" x="2135" y="-99.8" font-family="Times,serif" font-size="14.00">DeleteSpellComponent</text>
</g>
<!-- DeleteSpellComponent&#45;&gt;AdminModule -->
<g id="edge10" class="edge">
<title>DeleteSpellComponent&#45;&gt;AdminModule</title>
<path fill="none" stroke="black" d="M2081.95,-122.11C2081.95,-122.11 2081.95,-140.99 2081.95,-140.99"/>
<polygon fill="black" stroke="black" points="2078.45,-140.99 2081.95,-150.99 2085.45,-140.99 2078.45,-140.99"/>
</g>
<!-- DeleteUserComponent -->
<g id="node11" class="node">
<title>DeleteUserComponent</title>
<polygon fill="#ffffb3" stroke="black" points="2044.29,-122 1899.71,-122 1899.71,-86 2044.29,-86 2044.29,-122"/>
<text text-anchor="middle" x="1972" y="-99.8" font-family="Times,serif" font-size="14.00">DeleteUserComponent</text>
</g>
<!-- DeleteUserComponent&#45;&gt;AdminModule -->
<g id="edge11" class="edge">
<title>DeleteUserComponent&#45;&gt;AdminModule</title>
<path fill="none" stroke="black" d="M2023.96,-122.11C2023.96,-122.11 2023.96,-140.99 2023.96,-140.99"/>
<polygon fill="black" stroke="black" points="2020.46,-140.99 2023.96,-150.99 2027.46,-140.99 2020.46,-140.99"/>
</g>
<!-- EditChampionComponent -->
<g id="node12" class="node">
<title>EditChampionComponent</title>
<polygon fill="#ffffb3" stroke="black" points="1881.5,-122 1718.5,-122 1718.5,-86 1881.5,-86 1881.5,-122"/>
<text text-anchor="middle" x="1800" y="-99.8" font-family="Times,serif" font-size="14.00">EditChampionComponent</text>
</g>
<!-- EditChampionComponent&#45;&gt;AdminModule -->
<g id="edge12" class="edge">
<title>EditChampionComponent&#45;&gt;AdminModule</title>
<path fill="none" stroke="black" d="M1800,-122.05C1800,-136.37 1800,-154 1800,-154 1800,-154 1993.62,-154 1993.62,-154"/>
<polygon fill="black" stroke="black" points="1993.62,-157.5 2003.62,-154 1993.62,-150.5 1993.62,-157.5"/>
</g>
<!-- EditObjectComponent -->
<g id="node13" class="node">
<title>EditObjectComponent</title>
<polygon fill="#ffffb3" stroke="black" points="1700.98,-122 1559.02,-122 1559.02,-86 1700.98,-86 1700.98,-122"/>
<text text-anchor="middle" x="1630" y="-99.8" font-family="Times,serif" font-size="14.00">EditObjectComponent</text>
</g>
<!-- EditObjectComponent&#45;&gt;AdminModule -->
<g id="edge13" class="edge">
<title>EditObjectComponent&#45;&gt;AdminModule</title>
<path fill="none" stroke="black" d="M1630,-122.24C1630,-137.57 1630,-157 1630,-157 1630,-157 1993.65,-157 1993.65,-157"/>
<polygon fill="black" stroke="black" points="1993.65,-160.5 2003.65,-157 1993.65,-153.5 1993.65,-160.5"/>
</g>
<!-- EditRuneComponent -->
<g id="node14" class="node">
<title>EditRuneComponent</title>
<polygon fill="#ffffb3" stroke="black" points="1541.22,-122 1406.78,-122 1406.78,-86 1541.22,-86 1541.22,-122"/>
<text text-anchor="middle" x="1474" y="-99.8" font-family="Times,serif" font-size="14.00">EditRuneComponent</text>
</g>
<!-- EditRuneComponent&#45;&gt;AdminModule -->
<g id="edge14" class="edge">
<title>EditRuneComponent&#45;&gt;AdminModule</title>
<path fill="none" stroke="black" d="M1474,-122.03C1474,-138.4 1474,-160 1474,-160 1474,-160 1993.63,-160 1993.63,-160"/>
<polygon fill="black" stroke="black" points="1993.63,-163.5 2003.63,-160 1993.63,-156.5 1993.63,-163.5"/>
</g>
<!-- EditSpellComponent -->
<g id="node15" class="node">
<title>EditSpellComponent</title>
<polygon fill="#ffffb3" stroke="black" points="1388.95,-122 1255.05,-122 1255.05,-86 1388.95,-86 1388.95,-122"/>
<text text-anchor="middle" x="1322" y="-99.8" font-family="Times,serif" font-size="14.00">EditSpellComponent</text>
</g>
<!-- EditSpellComponent&#45;&gt;AdminModule -->
<g id="edge15" class="edge">
<title>EditSpellComponent&#45;&gt;AdminModule</title>
<path fill="none" stroke="black" d="M1322,-122.02C1322,-139.37 1322,-163 1322,-163 1322,-163 1993.62,-163 1993.62,-163"/>
<polygon fill="black" stroke="black" points="1993.62,-166.5 2003.62,-163 1993.62,-159.5 1993.62,-166.5"/>
</g>
<!-- EditUserComponent -->
<g id="node16" class="node">
<title>EditUserComponent</title>
<polygon fill="#ffffb3" stroke="black" points="1237.59,-122 1106.41,-122 1106.41,-86 1237.59,-86 1237.59,-122"/>
<text text-anchor="middle" x="1172" y="-99.8" font-family="Times,serif" font-size="14.00">EditUserComponent</text>
</g>
<!-- EditUserComponent&#45;&gt;AdminModule -->
<g id="edge16" class="edge">
<title>EditUserComponent&#45;&gt;AdminModule</title>
<path fill="none" stroke="black" d="M1172,-122.22C1172,-140.83 1172,-167 1172,-167 1172,-167 1993.75,-167 1993.75,-167"/>
<polygon fill="black" stroke="black" points="1993.75,-170.5 2003.75,-167 1993.75,-163.5 1993.75,-170.5"/>
</g>
<!-- HomePageComponent -->
<g id="node17" class="node">
<title>HomePageComponent</title>
<polygon fill="#ffffb3" stroke="black" points="1088.26,-122 945.74,-122 945.74,-86 1088.26,-86 1088.26,-122"/>
<text text-anchor="middle" x="1017" y="-99.8" font-family="Times,serif" font-size="14.00">HomePageComponent</text>
</g>
<!-- HomePageComponent&#45;&gt;AdminModule -->
<g id="edge17" class="edge">
<title>HomePageComponent&#45;&gt;AdminModule</title>
<path fill="none" stroke="black" d="M1017,-122.11C1017,-141.34 1017,-169 1017,-169 1017,-169 1993.73,-169 1993.73,-169"/>
<polygon fill="black" stroke="black" points="1993.73,-172.5 2003.73,-169 1993.73,-165.5 1993.73,-172.5"/>
</g>
<!-- ListChampionPageComponent -->
<g id="node18" class="node">
<title>ListChampionPageComponent</title>
<polygon fill="#ffffb3" stroke="black" points="927.16,-122 738.84,-122 738.84,-86 927.16,-86 927.16,-122"/>
<text text-anchor="middle" x="833" y="-99.8" font-family="Times,serif" font-size="14.00">ListChampionPageComponent</text>
</g>
<!-- ListChampionPageComponent&#45;&gt;AdminModule -->
<g id="edge18" class="edge">
<title>ListChampionPageComponent&#45;&gt;AdminModule</title>
<path fill="none" stroke="black" d="M833,-122.22C833,-142.37 833,-172 833,-172 833,-172 1993.66,-172 1993.66,-172"/>
<polygon fill="black" stroke="black" points="1993.66,-175.5 2003.66,-172 1993.66,-168.5 1993.66,-175.5"/>
</g>
<!-- ListObjectPageComponent -->
<g id="node19" class="node">
<title>ListObjectPageComponent</title>
<polygon fill="#ffffb3" stroke="black" points="720.64,-122 553.36,-122 553.36,-86 720.64,-86 720.64,-122"/>
<text text-anchor="middle" x="637" y="-99.8" font-family="Times,serif" font-size="14.00">ListObjectPageComponent</text>
</g>
<!-- ListObjectPageComponent&#45;&gt;AdminModule -->
<g id="edge19" class="edge">
<title>ListObjectPageComponent&#45;&gt;AdminModule</title>
<path fill="none" stroke="black" d="M637,-122.28C637,-143.32 637,-175 637,-175 637,-175 1993.43,-175 1993.43,-175"/>
<polygon fill="black" stroke="black" points="1993.43,-178.5 2003.43,-175 1993.43,-171.5 1993.43,-178.5"/>
</g>
<!-- ListRunePageComponent -->
<g id="node20" class="node">
<title>ListRunePageComponent</title>
<polygon fill="#ffffb3" stroke="black" points="534.87,-122 375.13,-122 375.13,-86 534.87,-86 534.87,-122"/>
<text text-anchor="middle" x="455" y="-99.8" font-family="Times,serif" font-size="14.00">ListRunePageComponent</text>
</g>
<!-- ListRunePageComponent&#45;&gt;AdminModule -->
<g id="edge20" class="edge">
<title>ListRunePageComponent&#45;&gt;AdminModule</title>
<path fill="none" stroke="black" d="M455,-122.29C455,-144.21 455,-178 455,-178 455,-178 1993.42,-178 1993.42,-178"/>
<polygon fill="black" stroke="black" points="1993.42,-181.5 2003.42,-178 1993.42,-174.5 1993.42,-181.5"/>
</g>
<!-- ListSpellPageComponent -->
<g id="node21" class="node">
<title>ListSpellPageComponent</title>
<polygon fill="#ffffb3" stroke="black" points="357.6,-122 198.4,-122 198.4,-86 357.6,-86 357.6,-122"/>
<text text-anchor="middle" x="278" y="-99.8" font-family="Times,serif" font-size="14.00">ListSpellPageComponent</text>
</g>
<!-- ListSpellPageComponent&#45;&gt;AdminModule -->
<g id="edge21" class="edge">
<title>ListSpellPageComponent&#45;&gt;AdminModule</title>
<path fill="none" stroke="black" d="M278,-122.09C278,-145.13 278,-182 278,-182 278,-182 1993.67,-182 1993.67,-182"/>
<polygon fill="black" stroke="black" points="1993.67,-185.5 2003.67,-182 1993.67,-178.5 1993.67,-185.5"/>
</g>
<!-- ListUserPageComponent -->
<g id="node22" class="node">
<title>ListUserPageComponent</title>
<polygon fill="#ffffb3" stroke="black" points="180.25,-122 23.75,-122 23.75,-86 180.25,-86 180.25,-122"/>
<text text-anchor="middle" x="102" y="-99.8" font-family="Times,serif" font-size="14.00">ListUserPageComponent</text>
</g>
<!-- ListUserPageComponent&#45;&gt;AdminModule -->
<g id="edge22" class="edge">
<title>ListUserPageComponent&#45;&gt;AdminModule</title>
<path fill="none" stroke="black" d="M102,-122.15C102,-145.76 102,-184 102,-184 102,-184 1993.31,-184 1993.31,-184"/>
<polygon fill="black" stroke="black" points="1993.31,-187.5 2003.31,-184 1993.31,-180.5 1993.31,-187.5"/>
</g>
<!-- AdminRoutingModule -->
<g id="node24" class="node">
<title>AdminRoutingModule</title>
<polygon fill="#8dd3c7" stroke="black" points="3980.56,-122 3977.56,-126 3956.56,-126 3953.56,-122 3837.44,-122 3837.44,-86 3980.56,-86 3980.56,-122"/>
<text text-anchor="middle" x="3909" y="-99.8" font-family="Times,serif" font-size="14.00">AdminRoutingModule</text>
</g>
<!-- AdminRoutingModule&#45;&gt;AdminModule -->
<g id="edge23" class="edge">
<title>AdminRoutingModule&#45;&gt;AdminModule</title>
<path fill="none" stroke="black" d="M3909,-122.15C3909,-145.76 3909,-184 3909,-184 3909,-184 2112.64,-184 2112.64,-184"/>
<polygon fill="black" stroke="black" points="2112.64,-180.5 2102.64,-184 2112.64,-187.5 2112.64,-180.5"/>
</g>
<!-- MaterialModule -->
<g id="node25" class="node">
<title>MaterialModule</title>
<polygon fill="#8dd3c7" stroke="black" points="3819.47,-122 3816.47,-126 3795.47,-126 3792.47,-122 3712.53,-122 3712.53,-86 3819.47,-86 3819.47,-122"/>
<text text-anchor="middle" x="3766" y="-99.8" font-family="Times,serif" font-size="14.00">MaterialModule</text>
</g>
<!-- MaterialModule&#45;&gt;AdminModule -->
<g id="edge24" class="edge">
<title>MaterialModule&#45;&gt;AdminModule</title>
<path fill="none" stroke="black" d="M3766,-122.09C3766,-145.13 3766,-182 3766,-182 3766,-182 2112.42,-182 2112.42,-182"/>
<polygon fill="black" stroke="black" points="2112.42,-178.5 2102.42,-182 2112.42,-185.5 2112.42,-178.5"/>
</g>
</g>
</svg>
