<?xml version="1.0" encoding="UTF-8" standalone="no"?>
<!DOCTYPE svg PUBLIC "-//W3C//DTD SVG 1.1//EN"
 "http://www.w3.org/Graphics/SVG/1.1/DTD/svg11.dtd">
<!-- Generated by graphviz version 2.47.0 (20210316.0004)
 -->
<!-- Title: dependencies Pages: 1 -->
<svg width="6985pt" height="284pt"
 viewBox="0.00 0.00 6985.00 284.00" xmlns="http://www.w3.org/2000/svg" xmlns:xlink="http://www.w3.org/1999/xlink">
<g id="graph0" class="graph" transform="scale(1 1) rotate(0) translate(4 280)">
<title>dependencies</title>
<polygon fill="white" stroke="transparent" points="-4,4 -4,-280 6981,-280 6981,4 -4,4"/>
<text text-anchor="start" x="3467.51" y="-42.4" font-family="Times-12" font-weight="bold" font-size="14.00">Legend</text>
<polygon fill="#ffffb3" stroke="transparent" points="3254.5,-10 3254.5,-30 3274.5,-30 3274.5,-10 3254.5,-10"/>
<text text-anchor="start" x="3278.13" y="-15.4" font-family="Times-12" font-size="14.00"> &#160;Declarations</text>
<polygon fill="#8dd3c7" stroke="transparent" points="3367.5,-10 3367.5,-30 3387.5,-30 3387.5,-10 3367.5,-10"/>
<text text-anchor="start" x="3391.23" y="-15.4" font-family="Times-12" font-size="14.00"> &#160;Module</text>
<polygon fill="#80b1d3" stroke="transparent" points="3453.5,-10 3453.5,-30 3473.5,-30 3473.5,-10 3453.5,-10"/>
<text text-anchor="start" x="3477.28" y="-15.4" font-family="Times-12" font-size="14.00"> &#160;Bootstrap</text>
<polygon fill="#fdb462" stroke="transparent" points="3550.5,-10 3550.5,-30 3570.5,-30 3570.5,-10 3550.5,-10"/>
<text text-anchor="start" x="3574.17" y="-15.4" font-family="Times-12" font-size="14.00"> &#160;Providers</text>
<polygon fill="#fb8072" stroke="transparent" points="3646.5,-10 3646.5,-30 3666.5,-30 3666.5,-10 3646.5,-10"/>
<text text-anchor="start" x="3670.23" y="-15.4" font-family="Times-12" font-size="14.00"> &#160;Exports</text>
<g id="clust1" class="cluster">
<title>cluster_AdminModule</title>
<polygon fill="none" stroke="black" stroke-dasharray="1,5" points="1801,-70 1801,-195 5791,-195 5791,-70 1801,-70"/>
</g>
<g id="clust2" class="cluster">
<title>cluster_AdminModule_declarations</title>
<polygon fill="none" stroke="black" points="1809,-78 1809,-130 5491,-130 5491,-78 1809,-78"/>
</g>
<g id="clust25" class="cluster">
<title>cluster_AdminModule_imports</title>
<polygon fill="none" stroke="black" points="5499,-78 5499,-130 5783,-130 5783,-78 5499,-78"/>
</g>
<g id="clust35" class="cluster">
<title>cluster_AppModule</title>
<polygon fill="none" stroke="black" stroke-dasharray="1,5" points="6167,-70 6167,-268 6457,-268 6457,-70 6167,-70"/>
</g>
<g id="clust36" class="cluster">
<title>cluster_AppModule_declarations</title>
<polygon fill="none" stroke="black" points="6327,-78 6327,-130 6449,-130 6449,-78 6327,-78"/>
</g>
<g id="clust38" class="cluster">
<title>cluster_AppModule_imports</title>
<polygon fill="none" stroke="black" points="6175,-78 6175,-130 6319,-130 6319,-78 6175,-78"/>
</g>
<g id="clust40" class="cluster">
<title>cluster_AppModule_bootstrap</title>
<polygon fill="none" stroke="black" points="6185,-208 6185,-260 6309,-260 6309,-208 6185,-208"/>
</g>
<g id="clust48" class="cluster">
<title>cluster_AuthModule</title>
<polygon fill="none" stroke="black" stroke-dasharray="1,5" points="6465,-70 6465,-195 6969,-195 6969,-70 6465,-70"/>
</g>
<g id="clust49" class="cluster">
<title>cluster_AuthModule_declarations</title>
<polygon fill="none" stroke="black" points="6629,-78 6629,-130 6961,-130 6961,-78 6629,-78"/>
</g>
<g id="clust52" class="cluster">
<title>cluster_AuthModule_imports</title>
<polygon fill="none" stroke="black" points="6473,-78 6473,-130 6621,-130 6621,-78 6473,-78"/>
</g>
<g id="clust68" class="cluster">
<title>cluster_MobabuildModule</title>
<polygon fill="none" stroke="black" stroke-dasharray="1,5" points="8,-70 8,-195 1793,-195 1793,-70 8,-70"/>
</g>
<g id="clust69" class="cluster">
<title>cluster_MobabuildModule_declarations</title>
<polygon fill="none" stroke="black" points="206,-78 206,-130 1785,-130 1785,-78 206,-78"/>
</g>
<g id="clust80" class="cluster">
<title>cluster_MobabuildModule_imports</title>
<polygon fill="none" stroke="black" points="16,-78 16,-130 198,-130 198,-78 16,-78"/>
</g>
<g id="clust90" class="cluster">
<title>cluster_SharedModule</title>
<polygon fill="none" stroke="black" stroke-dasharray="1,5" points="5799,-70 5799,-195 6159,-195 6159,-70 5799,-70"/>
</g>
<g id="clust91" class="cluster">
<title>cluster_SharedModule_declarations</title>
<polygon fill="none" stroke="black" points="5975,-78 5975,-130 6151,-130 6151,-78 5975,-78"/>
</g>
<g id="clust94" class="cluster">
<title>cluster_SharedModule_imports</title>
<polygon fill="none" stroke="black" points="5807,-78 5807,-130 5967,-130 5967,-78 5807,-78"/>
</g>
<!-- AddChampionComponent -->
<g id="node1" class="node">
<title>AddChampionComponent</title>
<polygon fill="#ffffb3" stroke="black" points="2790.77,-122 2627.23,-122 2627.23,-86 2790.77,-86 2790.77,-122"/>
<text text-anchor="middle" x="2709" y="-99.8" font-family="Times,serif" font-size="14.00">AddChampionComponent</text>
</g>
<!-- AdminModule -->
<g id="node23" class="node">
<title>AdminModule</title>
<polygon fill="#8dd3c7" stroke="black" points="3928.44,-187 3925.44,-191 3904.44,-191 3901.44,-187 3829.56,-187 3829.56,-151 3928.44,-151 3928.44,-187"/>
<text text-anchor="middle" x="3879" y="-164.8" font-family="Times,serif" font-size="14.00">AdminModule</text>
</g>
<!-- AddChampionComponent&#45;&gt;AdminModule -->
<g id="edge1" class="edge">
<title>AddChampionComponent&#45;&gt;AdminModule</title>
<path fill="none" stroke="black" d="M2709,-122.27C2709,-140.56 2709,-166 2709,-166 2709,-166 3819.47,-166 3819.47,-166"/>
<polygon fill="black" stroke="black" points="3819.47,-169.5 3829.47,-166 3819.47,-162.5 3819.47,-169.5"/>
</g>
<!-- AddObjectComponent -->
<g id="node2" class="node">
<title>AddObjectComponent</title>
<polygon fill="#ffffb3" stroke="black" points="2609.26,-122 2466.74,-122 2466.74,-86 2609.26,-86 2609.26,-122"/>
<text text-anchor="middle" x="2538" y="-99.8" font-family="Times,serif" font-size="14.00">AddObjectComponent</text>
</g>
<!-- AddObjectComponent&#45;&gt;AdminModule -->
<g id="edge2" class="edge">
<title>AddObjectComponent&#45;&gt;AdminModule</title>
<path fill="none" stroke="black" d="M2538,-122.17C2538,-141.09 2538,-168 2538,-168 2538,-168 3819.68,-168 3819.68,-168"/>
<polygon fill="black" stroke="black" points="3819.68,-171.5 3829.68,-168 3819.68,-164.5 3819.68,-171.5"/>
</g>
<!-- AddRuneComponent -->
<g id="node3" class="node">
<title>AddRuneComponent</title>
<polygon fill="#ffffb3" stroke="black" points="2448.49,-122 2313.51,-122 2313.51,-86 2448.49,-86 2448.49,-122"/>
<text text-anchor="middle" x="2381" y="-99.8" font-family="Times,serif" font-size="14.00">AddRuneComponent</text>
</g>
<!-- AddRuneComponent&#45;&gt;AdminModule -->
<g id="edge3" class="edge">
<title>AddRuneComponent&#45;&gt;AdminModule</title>
<path fill="none" stroke="black" d="M2381,-122.31C2381,-142.15 2381,-171 2381,-171 2381,-171 3819.59,-171 3819.59,-171"/>
<polygon fill="black" stroke="black" points="3819.59,-174.5 3829.59,-171 3819.59,-167.5 3819.59,-174.5"/>
</g>
<!-- AddSpellComponent -->
<g id="node4" class="node">
<title>AddSpellComponent</title>
<polygon fill="#ffffb3" stroke="black" points="2295.22,-122 2160.78,-122 2160.78,-86 2295.22,-86 2295.22,-122"/>
<text text-anchor="middle" x="2228" y="-99.8" font-family="Times,serif" font-size="14.00">AddSpellComponent</text>
</g>
<!-- AddSpellComponent&#45;&gt;AdminModule -->
<g id="edge4" class="edge">
<title>AddSpellComponent&#45;&gt;AdminModule</title>
<path fill="none" stroke="black" d="M2228,-122.13C2228,-142.57 2228,-173 2228,-173 2228,-173 3819.59,-173 3819.59,-173"/>
<polygon fill="black" stroke="black" points="3819.59,-176.5 3829.59,-173 3819.59,-169.5 3819.59,-176.5"/>
</g>
<!-- AddUserComponent -->
<g id="node5" class="node">
<title>AddUserComponent</title>
<polygon fill="#ffffb3" stroke="black" points="2142.87,-122 2011.13,-122 2011.13,-86 2142.87,-86 2142.87,-122"/>
<text text-anchor="middle" x="2077" y="-99.8" font-family="Times,serif" font-size="14.00">AddUserComponent</text>
</g>
<!-- AddUserComponent&#45;&gt;AdminModule -->
<g id="edge5" class="edge">
<title>AddUserComponent&#45;&gt;AdminModule</title>
<path fill="none" stroke="black" d="M2077,-122.28C2077,-143.32 2077,-175 2077,-175 2077,-175 3819.4,-175 3819.4,-175"/>
<polygon fill="black" stroke="black" points="3819.4,-178.5 3829.4,-175 3819.4,-171.5 3819.4,-178.5"/>
</g>
<!-- Base64ToImagePipe -->
<g id="node6" class="node">
<title>Base64ToImagePipe</title>
<polygon fill="#ffffb3" stroke="black" points="4979.13,-122 4846.87,-122 4846.87,-86 4979.13,-86 4979.13,-122"/>
<text text-anchor="middle" x="4913" y="-99.8" font-family="Times,serif" font-size="14.00">Base64ToImagePipe</text>
</g>
<!-- Base64ToImagePipe&#45;&gt;AdminModule -->
<g id="edge6" class="edge">
<title>Base64ToImagePipe&#45;&gt;AdminModule</title>
<path fill="none" stroke="black" d="M4913,-122.22C4913,-140.83 4913,-167 4913,-167 4913,-167 3938.52,-167 3938.52,-167"/>
<polygon fill="black" stroke="black" points="3938.52,-163.5 3928.52,-167 3938.52,-170.5 3938.52,-163.5"/>
</g>
<!-- MobabuildModule -->
<g id="node43" class="node">
<title>MobabuildModule</title>
<polygon fill="#8dd3c7" stroke="black" points="1150.49,-187 1147.49,-191 1126.49,-191 1123.49,-187 1029.51,-187 1029.51,-151 1150.49,-151 1150.49,-187"/>
<text text-anchor="middle" x="1090" y="-164.8" font-family="Times,serif" font-size="14.00">MobabuildModule</text>
</g>
<!-- Base64ToImagePipe&#45;&gt;MobabuildModule -->
<g id="edge34" class="edge">
<title>Base64ToImagePipe&#45;&gt;MobabuildModule</title>
<path fill="none" stroke="black" d="M4879.84,-122.19C4879.84,-125.54 4879.84,-128 4879.84,-128 4879.84,-128 1127.8,-128 1127.8,-128 1127.8,-128 1127.8,-140.9 1127.8,-140.9"/>
<polygon fill="black" stroke="black" points="1124.3,-140.9 1127.8,-150.9 1131.3,-140.9 1124.3,-140.9"/>
</g>
<!-- SharedModule -->
<g id="node46" class="node">
<title>SharedModule</title>
<polygon fill="#8dd3c7" stroke="black" points="5920.42,-187 5917.42,-191 5896.42,-191 5893.42,-187 5821.58,-187 5821.58,-151 5920.42,-151 5920.42,-187"/>
<text text-anchor="middle" x="5871" y="-164.8" font-family="Times,serif" font-size="14.00">SharedModule</text>
</g>
<!-- Base64ToImagePipe&#45;&gt;SharedModule -->
<g id="edge45" class="edge">
<title>Base64ToImagePipe&#45;&gt;SharedModule</title>
<path fill="none" stroke="black" d="M4946.16,-122.38C4946.16,-146.28 4946.16,-185 4946.16,-185 4946.16,-185 5811.6,-185 5811.6,-185"/>
<polygon fill="black" stroke="black" points="5811.6,-188.5 5821.6,-185 5811.6,-181.5 5811.6,-188.5"/>
</g>
<!-- DeleteChampionComponent -->
<g id="node7" class="node">
<title>DeleteChampionComponent</title>
<polygon fill="#ffffb3" stroke="black" points="1993.2,-122 1816.8,-122 1816.8,-86 1993.2,-86 1993.2,-122"/>
<text text-anchor="middle" x="1905" y="-99.8" font-family="Times,serif" font-size="14.00">DeleteChampionComponent</text>
</g>
<!-- DeleteChampionComponent&#45;&gt;AdminModule -->
<g id="edge7" class="edge">
<title>DeleteChampionComponent&#45;&gt;AdminModule</title>
<path fill="none" stroke="black" d="M1905,-122.29C1905,-144.21 1905,-178 1905,-178 1905,-178 3819.71,-178 3819.71,-178"/>
<polygon fill="black" stroke="black" points="3819.71,-181.5 3829.71,-178 3819.71,-174.5 3819.71,-181.5"/>
</g>
<!-- DeleteObjectComponent -->
<g id="node8" class="node">
<title>DeleteObjectComponent</title>
<polygon fill="#ffffb3" stroke="black" points="5482.68,-122 5327.32,-122 5327.32,-86 5482.68,-86 5482.68,-122"/>
<text text-anchor="middle" x="5405" y="-99.8" font-family="Times,serif" font-size="14.00">DeleteObjectComponent</text>
</g>
<!-- DeleteObjectComponent&#45;&gt;AdminModule -->
<g id="edge8" class="edge">
<title>DeleteObjectComponent&#45;&gt;AdminModule</title>
<path fill="none" stroke="black" d="M5405,-122.28C5405,-143.32 5405,-175 5405,-175 5405,-175 3938.47,-175 3938.47,-175"/>
<polygon fill="black" stroke="black" points="3938.47,-171.5 3928.47,-175 3938.47,-178.5 3938.47,-171.5"/>
</g>
<!-- DeleteRuneComponent -->
<g id="node9" class="node">
<title>DeleteRuneComponent</title>
<polygon fill="#ffffb3" stroke="black" points="5309.92,-122 5162.08,-122 5162.08,-86 5309.92,-86 5309.92,-122"/>
<text text-anchor="middle" x="5236" y="-99.8" font-family="Times,serif" font-size="14.00">DeleteRuneComponent</text>
</g>
<!-- DeleteRuneComponent&#45;&gt;AdminModule -->
<g id="edge9" class="edge">
<title>DeleteRuneComponent&#45;&gt;AdminModule</title>
<path fill="none" stroke="black" d="M5236,-122.22C5236,-142.37 5236,-172 5236,-172 5236,-172 3938.5,-172 3938.5,-172"/>
<polygon fill="black" stroke="black" points="3938.5,-168.5 3928.5,-172 3938.5,-175.5 3938.5,-168.5"/>
</g>
<!-- DeleteSpellComponent -->
<g id="node10" class="node">
<title>DeleteSpellComponent</title>
<polygon fill="#ffffb3" stroke="black" points="5144.14,-122 4997.86,-122 4997.86,-86 5144.14,-86 5144.14,-122"/>
<text text-anchor="middle" x="5071" y="-99.8" font-family="Times,serif" font-size="14.00">DeleteSpellComponent</text>
</g>
<!-- DeleteSpellComponent&#45;&gt;AdminModule -->
<g id="edge10" class="edge">
<title>DeleteSpellComponent&#45;&gt;AdminModule</title>
<path fill="none" stroke="black" d="M5071,-122.11C5071,-141.34 5071,-169 5071,-169 5071,-169 3938.32,-169 3938.32,-169"/>
<polygon fill="black" stroke="black" points="3938.33,-165.5 3928.32,-169 3938.32,-172.5 3938.33,-165.5"/>
</g>
<!-- DeleteUserComponent -->
<g id="node11" class="node">
<title>DeleteUserComponent</title>
<polygon fill="#ffffb3" stroke="black" points="4829.29,-122 4684.71,-122 4684.71,-86 4829.29,-86 4829.29,-122"/>
<text text-anchor="middle" x="4757" y="-99.8" font-family="Times,serif" font-size="14.00">DeleteUserComponent</text>
</g>
<!-- DeleteUserComponent&#45;&gt;AdminModule -->
<g id="edge11" class="edge">
<title>DeleteUserComponent&#45;&gt;AdminModule</title>
<path fill="none" stroke="black" d="M4757,-122C4757,-139.68 4757,-164 4757,-164 4757,-164 3938.4,-164 3938.4,-164"/>
<polygon fill="black" stroke="black" points="3938.4,-160.5 3928.4,-164 3938.4,-167.5 3938.4,-160.5"/>
</g>
<!-- EditChampionComponent -->
<g id="node12" class="node">
<title>EditChampionComponent</title>
<polygon fill="#ffffb3" stroke="black" points="4666.5,-122 4503.5,-122 4503.5,-86 4666.5,-86 4666.5,-122"/>
<text text-anchor="middle" x="4585" y="-99.8" font-family="Times,serif" font-size="14.00">EditChampionComponent</text>
</g>
<!-- EditChampionComponent&#45;&gt;AdminModule -->
<g id="edge12" class="edge">
<title>EditChampionComponent&#45;&gt;AdminModule</title>
<path fill="none" stroke="black" d="M4585,-122.03C4585,-139.06 4585,-162 4585,-162 4585,-162 3938.36,-162 3938.36,-162"/>
<polygon fill="black" stroke="black" points="3938.36,-158.5 3928.36,-162 3938.36,-165.5 3938.36,-158.5"/>
</g>
<!-- EditObjectComponent -->
<g id="node13" class="node">
<title>EditObjectComponent</title>
<polygon fill="#ffffb3" stroke="black" points="4485.98,-122 4344.02,-122 4344.02,-86 4485.98,-86 4485.98,-122"/>
<text text-anchor="middle" x="4415" y="-99.8" font-family="Times,serif" font-size="14.00">EditObjectComponent</text>
</g>
<!-- EditObjectComponent&#45;&gt;AdminModule -->
<g id="edge13" class="edge">
<title>EditObjectComponent&#45;&gt;AdminModule</title>
<path fill="none" stroke="black" d="M4415,-122.01C4415,-138.05 4415,-159 4415,-159 4415,-159 3938.46,-159 3938.46,-159"/>
<polygon fill="black" stroke="black" points="3938.46,-155.5 3928.46,-159 3938.46,-162.5 3938.46,-155.5"/>
</g>
<!-- EditRuneComponent -->
<g id="node14" class="node">
<title>EditRuneComponent</title>
<polygon fill="#ffffb3" stroke="black" points="4326.22,-122 4191.78,-122 4191.78,-86 4326.22,-86 4326.22,-122"/>
<text text-anchor="middle" x="4259" y="-99.8" font-family="Times,serif" font-size="14.00">EditRuneComponent</text>
</g>
<!-- EditRuneComponent&#45;&gt;AdminModule -->
<g id="edge14" class="edge">
<title>EditRuneComponent&#45;&gt;AdminModule</title>
<path fill="none" stroke="black" d="M4259,-122.24C4259,-137.57 4259,-157 4259,-157 4259,-157 3938.29,-157 3938.29,-157"/>
<polygon fill="black" stroke="black" points="3938.29,-153.5 3928.29,-157 3938.29,-160.5 3938.29,-153.5"/>
</g>
<!-- EditSpellComponent -->
<g id="node15" class="node">
<title>EditSpellComponent</title>
<polygon fill="#ffffb3" stroke="black" points="4173.95,-122 4040.05,-122 4040.05,-86 4173.95,-86 4173.95,-122"/>
<text text-anchor="middle" x="4107" y="-99.8" font-family="Times,serif" font-size="14.00">EditSpellComponent</text>
</g>
<!-- EditSpellComponent&#45;&gt;AdminModule -->
<g id="edge15" class="edge">
<title>EditSpellComponent&#45;&gt;AdminModule</title>
<path fill="none" stroke="black" d="M4107,-122.05C4107,-136.37 4107,-154 4107,-154 4107,-154 3938.47,-154 3938.47,-154"/>
<polygon fill="black" stroke="black" points="3938.47,-150.5 3928.47,-154 3938.47,-157.5 3938.47,-150.5"/>
</g>
<!-- EditUserComponent -->
<g id="node16" class="node">
<title>EditUserComponent</title>
<polygon fill="#ffffb3" stroke="black" points="4022.59,-122 3891.41,-122 3891.41,-86 4022.59,-86 4022.59,-122"/>
<text text-anchor="middle" x="3957" y="-99.8" font-family="Times,serif" font-size="14.00">EditUserComponent</text>
</g>
<!-- EditUserComponent&#45;&gt;AdminModule -->
<g id="edge16" class="edge">
<title>EditUserComponent&#45;&gt;AdminModule</title>
<path fill="none" stroke="black" d="M3909.84,-122.11C3909.84,-122.11 3909.84,-140.99 3909.84,-140.99"/>
<polygon fill="black" stroke="black" points="3906.34,-140.99 3909.84,-150.99 3913.34,-140.99 3906.34,-140.99"/>
</g>
<!-- HomePageComponent -->
<g id="node17" class="node">
<title>HomePageComponent</title>
<polygon fill="#ffffb3" stroke="black" points="3873.26,-122 3730.74,-122 3730.74,-86 3873.26,-86 3873.26,-122"/>
<text text-anchor="middle" x="3802" y="-99.8" font-family="Times,serif" font-size="14.00">HomePageComponent</text>
</g>
<!-- HomePageComponent&#45;&gt;AdminModule -->
<g id="edge17" class="edge">
<title>HomePageComponent&#45;&gt;AdminModule</title>
<path fill="none" stroke="black" d="M3851.58,-122.11C3851.58,-122.11 3851.58,-140.99 3851.58,-140.99"/>
<polygon fill="black" stroke="black" points="3848.08,-140.99 3851.58,-150.99 3855.08,-140.99 3848.08,-140.99"/>
</g>
<!-- ListChampionPageComponent -->
<g id="node18" class="node">
<title>ListChampionPageComponent</title>
<polygon fill="#ffffb3" stroke="black" points="3712.16,-122 3523.84,-122 3523.84,-86 3712.16,-86 3712.16,-122"/>
<text text-anchor="middle" x="3618" y="-99.8" font-family="Times,serif" font-size="14.00">ListChampionPageComponent</text>
</g>
<!-- ListChampionPageComponent&#45;&gt;AdminModule -->
<g id="edge18" class="edge">
<title>ListChampionPageComponent&#45;&gt;AdminModule</title>
<path fill="none" stroke="black" d="M3618,-122.05C3618,-136.37 3618,-154 3618,-154 3618,-154 3819.6,-154 3819.6,-154"/>
<polygon fill="black" stroke="black" points="3819.6,-157.5 3829.6,-154 3819.6,-150.5 3819.6,-157.5"/>
</g>
<!-- ListObjectPageComponent -->
<g id="node19" class="node">
<title>ListObjectPageComponent</title>
<polygon fill="#ffffb3" stroke="black" points="3505.64,-122 3338.36,-122 3338.36,-86 3505.64,-86 3505.64,-122"/>
<text text-anchor="middle" x="3422" y="-99.8" font-family="Times,serif" font-size="14.00">ListObjectPageComponent</text>
</g>
<!-- ListObjectPageComponent&#45;&gt;AdminModule -->
<g id="edge19" class="edge">
<title>ListObjectPageComponent&#45;&gt;AdminModule</title>
<path fill="none" stroke="black" d="M3422,-122.19C3422,-137.18 3422,-156 3422,-156 3422,-156 3819.66,-156 3819.66,-156"/>
<polygon fill="black" stroke="black" points="3819.66,-159.5 3829.66,-156 3819.66,-152.5 3819.66,-159.5"/>
</g>
<!-- ListRunePageComponent -->
<g id="node20" class="node">
<title>ListRunePageComponent</title>
<polygon fill="#ffffb3" stroke="black" points="3319.87,-122 3160.13,-122 3160.13,-86 3319.87,-86 3319.87,-122"/>
<text text-anchor="middle" x="3240" y="-99.8" font-family="Times,serif" font-size="14.00">ListRunePageComponent</text>
</g>
<!-- ListRunePageComponent&#45;&gt;AdminModule -->
<g id="edge20" class="edge">
<title>ListRunePageComponent&#45;&gt;AdminModule</title>
<path fill="none" stroke="black" d="M3240,-122.01C3240,-138.05 3240,-159 3240,-159 3240,-159 3819.66,-159 3819.66,-159"/>
<polygon fill="black" stroke="black" points="3819.66,-162.5 3829.66,-159 3819.66,-155.5 3819.66,-162.5"/>
</g>
<!-- ListSpellPageComponent -->
<g id="node21" class="node">
<title>ListSpellPageComponent</title>
<polygon fill="#ffffb3" stroke="black" points="3142.6,-122 2983.4,-122 2983.4,-86 3142.6,-86 3142.6,-122"/>
<text text-anchor="middle" x="3063" y="-99.8" font-family="Times,serif" font-size="14.00">ListSpellPageComponent</text>
</g>
<!-- ListSpellPageComponent&#45;&gt;AdminModule -->
<g id="edge21" class="edge">
<title>ListSpellPageComponent&#45;&gt;AdminModule</title>
<path fill="none" stroke="black" d="M3063,-122.04C3063,-138.73 3063,-161 3063,-161 3063,-161 3819.49,-161 3819.49,-161"/>
<polygon fill="black" stroke="black" points="3819.49,-164.5 3829.49,-161 3819.49,-157.5 3819.49,-164.5"/>
</g>
<!-- ListUserPageComponent -->
<g id="node22" class="node">
<title>ListUserPageComponent</title>
<polygon fill="#ffffb3" stroke="black" points="2965.25,-122 2808.75,-122 2808.75,-86 2965.25,-86 2965.25,-122"/>
<text text-anchor="middle" x="2887" y="-99.8" font-family="Times,serif" font-size="14.00">ListUserPageComponent</text>
</g>
<!-- ListUserPageComponent&#45;&gt;AdminModule -->
<g id="edge22" class="edge">
<title>ListUserPageComponent&#45;&gt;AdminModule</title>
<path fill="none" stroke="black" d="M2887,-122.02C2887,-139.37 2887,-163 2887,-163 2887,-163 3819.47,-163 3819.47,-163"/>
<polygon fill="black" stroke="black" points="3819.47,-166.5 3829.47,-163 3819.47,-159.5 3819.47,-166.5"/>
</g>
<!-- AdminRoutingModule -->
<g id="node24" class="node">
<title>AdminRoutingModule</title>
<polygon fill="#8dd3c7" stroke="black" points="5650.56,-122 5647.56,-126 5626.56,-126 5623.56,-122 5507.44,-122 5507.44,-86 5650.56,-86 5650.56,-122"/>
<text text-anchor="middle" x="5579" y="-99.8" font-family="Times,serif" font-size="14.00">AdminRoutingModule</text>
</g>
<!-- AdminRoutingModule&#45;&gt;AdminModule -->
<g id="edge23" class="edge">
<title>AdminRoutingModule&#45;&gt;AdminModule</title>
<path fill="none" stroke="black" d="M5579,-122.04C5579,-143.66 5579,-177 5579,-177 5579,-177 3938.5,-177 3938.5,-177"/>
<polygon fill="black" stroke="black" points="3938.5,-173.5 3928.5,-177 3938.5,-180.5 3938.5,-173.5"/>
</g>
<!-- MaterialModule -->
<g id="node25" class="node">
<title>MaterialModule</title>
<polygon fill="#8dd3c7" stroke="black" points="5775.47,-122 5772.47,-126 5751.47,-126 5748.47,-122 5668.53,-122 5668.53,-86 5775.47,-86 5775.47,-122"/>
<text text-anchor="middle" x="5722" y="-99.8" font-family="Times,serif" font-size="14.00">MaterialModule</text>
</g>
<!-- MaterialModule&#45;&gt;AdminModule -->
<g id="edge24" class="edge">
<title>MaterialModule&#45;&gt;AdminModule</title>
<path fill="none" stroke="black" d="M5704.17,-122.01C5704.17,-144.49 5704.17,-180 5704.17,-180 5704.17,-180 3938.29,-180 3938.29,-180"/>
<polygon fill="black" stroke="black" points="3938.29,-176.5 3928.29,-180 3938.29,-183.5 3938.29,-176.5"/>
</g>
<!-- AppModule -->
<g id="node27" class="node">
<title>AppModule</title>
<polygon fill="#8dd3c7" stroke="black" points="6288.66,-187 6285.66,-191 6264.66,-191 6261.66,-187 6205.34,-187 6205.34,-151 6288.66,-151 6288.66,-187"/>
<text text-anchor="middle" x="6247" y="-164.8" font-family="Times,serif" font-size="14.00">AppModule</text>
</g>
<!-- MaterialModule&#45;&gt;AppModule -->
<g id="edge27" class="edge">
<title>MaterialModule&#45;&gt;AppModule</title>
<path fill="none" stroke="black" d="M5722,-122.06C5722,-133.44 5722,-146 5722,-146 5722,-146 6233.06,-146 6233.06,-146 6233.06,-146 6233.06,-146.49 6233.06,-146.49"/>
<polygon fill="black" stroke="black" points="6229.56,-140.88 6233.06,-150.88 6236.56,-140.88 6229.56,-140.88"/>
</g>
<!-- AuthModule -->
<g id="node32" class="node">
<title>AuthModule</title>
<polygon fill="#8dd3c7" stroke="black" points="6674.55,-187 6671.55,-191 6650.55,-191 6647.55,-187 6587.45,-187 6587.45,-151 6674.55,-151 6674.55,-187"/>
<text text-anchor="middle" x="6631" y="-164.8" font-family="Times,serif" font-size="14.00">AuthModule</text>
</g>
<!-- MaterialModule&#45;&gt;AuthModule -->
<g id="edge32" class="edge">
<title>MaterialModule&#45;&gt;AuthModule</title>
<path fill="none" stroke="black" d="M5739.83,-122.42C5739.83,-131.28 5739.83,-140 5739.83,-140 5739.83,-140 6595.93,-140 6595.93,-140 6595.93,-140 6595.93,-141.08 6595.93,-141.08"/>
<polygon fill="black" stroke="black" points="6592.43,-140.8 6595.93,-150.8 6599.43,-140.8 6592.43,-140.8"/>
</g>
<!-- MaterialModule&#45;&gt;MobabuildModule -->
<g id="edge43" class="edge">
<title>MaterialModule&#45;&gt;MobabuildModule</title>
<path fill="none" stroke="black" d="M5686.34,-122.14C5686.34,-128.46 5686.34,-134 5686.34,-134 5686.34,-134 1139.15,-134 1139.15,-134 1139.15,-134 1139.15,-140.68 1139.15,-140.68"/>
<polygon fill="black" stroke="black" points="1135.65,-140.68 1139.15,-150.68 1142.65,-140.68 1135.65,-140.68"/>
</g>
<!-- MaterialModule&#45;&gt;SharedModule -->
<g id="edge47" class="edge">
<title>MaterialModule&#45;&gt;SharedModule</title>
<path fill="none" stroke="black" d="M5757.66,-122.09C5757.66,-145.13 5757.66,-182 5757.66,-182 5757.66,-182 5811.62,-182 5811.62,-182"/>
<polygon fill="black" stroke="black" points="5811.62,-185.5 5821.62,-182 5811.62,-178.5 5811.62,-185.5"/>
</g>
<!-- AppComponent -->
<g id="node26" class="node">
<title>AppComponent</title>
<polygon fill="#ffffb3" stroke="black" points="6440.94,-122 6335.06,-122 6335.06,-86 6440.94,-86 6440.94,-122"/>
<text text-anchor="middle" x="6388" y="-99.8" font-family="Times,serif" font-size="14.00">AppComponent</text>
</g>
<!-- AppComponent&#45;&gt;AppModule -->
<g id="edge25" class="edge">
<title>AppComponent&#45;&gt;AppModule</title>
<path fill="none" stroke="black" d="M6388,-122.11C6388,-141.34 6388,-169 6388,-169 6388,-169 6298.92,-169 6298.92,-169"/>
<polygon fill="black" stroke="black" points="6298.92,-165.5 6288.92,-169 6298.92,-172.5 6298.92,-165.5"/>
</g>
<!-- AppComponent  -->
<g id="node29" class="node">
<title>AppComponent </title>
<polygon fill="#80b1d3" stroke="black" points="6301.44,-252 6192.56,-252 6192.56,-216 6301.44,-216 6301.44,-252"/>
<text text-anchor="middle" x="6247" y="-229.8" font-family="Times,serif" font-size="14.00">AppComponent </text>
</g>
<!-- AppModule&#45;&gt;AppComponent  -->
<g id="edge28" class="edge">
<title>AppModule&#45;&gt;AppComponent </title>
<path fill="none" stroke="black" stroke-dasharray="1,5" d="M6247,-187.11C6247,-187.11 6247,-205.99 6247,-205.99"/>
<polygon fill="black" stroke="black" points="6243.5,-205.99 6247,-215.99 6250.5,-205.99 6243.5,-205.99"/>
</g>
<!-- AppRoutingModule -->
<g id="node28" class="node">
<title>AppRoutingModule</title>
<polygon fill="#8dd3c7" stroke="black" points="6311.27,-122 6308.27,-126 6287.27,-126 6284.27,-122 6182.73,-122 6182.73,-86 6311.27,-86 6311.27,-122"/>
<text text-anchor="middle" x="6247" y="-99.8" font-family="Times,serif" font-size="14.00">AppRoutingModule</text>
</g>
<!-- AppRoutingModule&#45;&gt;AppModule -->
<g id="edge26" class="edge">
<title>AppRoutingModule&#45;&gt;AppModule</title>
<path fill="none" stroke="black" d="M6260.94,-122.11C6260.94,-122.11 6260.94,-140.99 6260.94,-140.99"/>
<polygon fill="black" stroke="black" points="6257.44,-140.99 6260.94,-150.99 6264.44,-140.99 6257.44,-140.99"/>
</g>
<!-- LoginPageComponent -->
<g id="node30" class="node">
<title>LoginPageComponent</title>
<polygon fill="#ffffb3" stroke="black" points="6952.99,-122 6811.01,-122 6811.01,-86 6952.99,-86 6952.99,-122"/>
<text text-anchor="middle" x="6882" y="-99.8" font-family="Times,serif" font-size="14.00">LoginPageComponent</text>
</g>
<!-- LoginPageComponent&#45;&gt;AuthModule -->
<g id="edge29" class="edge">
<title>LoginPageComponent&#45;&gt;AuthModule</title>
<path fill="none" stroke="black" d="M6882,-122.11C6882,-141.34 6882,-169 6882,-169 6882,-169 6684.72,-169 6684.72,-169"/>
<polygon fill="black" stroke="black" points="6684.72,-165.5 6674.72,-169 6684.72,-172.5 6684.72,-165.5"/>
</g>
<!-- RegisterPageComponent -->
<g id="node31" class="node">
<title>RegisterPageComponent</title>
<polygon fill="#ffffb3" stroke="black" points="6792.7,-122 6637.3,-122 6637.3,-86 6792.7,-86 6792.7,-122"/>
<text text-anchor="middle" x="6715" y="-99.8" font-family="Times,serif" font-size="14.00">RegisterPageComponent</text>
</g>
<!-- RegisterPageComponent&#45;&gt;AuthModule -->
<g id="edge30" class="edge">
<title>RegisterPageComponent&#45;&gt;AuthModule</title>
<path fill="none" stroke="black" d="M6656.09,-122.11C6656.09,-122.11 6656.09,-140.99 6656.09,-140.99"/>
<polygon fill="black" stroke="black" points="6652.59,-140.99 6656.09,-150.99 6659.59,-140.99 6652.59,-140.99"/>
</g>
<!-- AuthRoutingModule -->
<g id="node33" class="node">
<title>AuthRoutingModule</title>
<polygon fill="#8dd3c7" stroke="black" points="6613.17,-122 6610.17,-126 6589.17,-126 6586.17,-122 6480.83,-122 6480.83,-86 6613.17,-86 6613.17,-122"/>
<text text-anchor="middle" x="6547" y="-99.8" font-family="Times,serif" font-size="14.00">AuthRoutingModule</text>
</g>
<!-- AuthRoutingModule&#45;&gt;AuthModule -->
<g id="edge31" class="edge">
<title>AuthRoutingModule&#45;&gt;AuthModule</title>
<path fill="none" stroke="black" d="M6604.63,-122.11C6604.63,-122.11 6604.63,-140.99 6604.63,-140.99"/>
<polygon fill="black" stroke="black" points="6601.13,-140.99 6604.63,-150.99 6608.13,-140.99 6601.13,-140.99"/>
</g>
<!-- AddBuildPageComponent -->
<g id="node34" class="node">
<title>AddBuildPageComponent</title>
<polygon fill="#ffffb3" stroke="black" points="1588.77,-122 1425.23,-122 1425.23,-86 1588.77,-86 1588.77,-122"/>
<text text-anchor="middle" x="1507" y="-99.8" font-family="Times,serif" font-size="14.00">AddBuildPageComponent</text>
</g>
<!-- AddBuildPageComponent&#45;&gt;MobabuildModule -->
<g id="edge33" class="edge">
<title>AddBuildPageComponent&#45;&gt;MobabuildModule</title>
<path fill="none" stroke="black" d="M1507,-122.32C1507,-145.66 1507,-183 1507,-183 1507,-183 1160.64,-183 1160.64,-183"/>
<polygon fill="black" stroke="black" points="1160.64,-179.5 1150.64,-183 1160.64,-186.5 1160.64,-179.5"/>
</g>
<!-- DeleteBuildComponent -->
<g id="node35" class="node">
<title>DeleteBuildComponent</title>
<polygon fill="#ffffb3" stroke="black" points="1407.48,-122 1258.52,-122 1258.52,-86 1407.48,-86 1407.48,-122"/>
<text text-anchor="middle" x="1333" y="-99.8" font-family="Times,serif" font-size="14.00">DeleteBuildComponent</text>
</g>
<!-- DeleteBuildComponent&#45;&gt;MobabuildModule -->
<g id="edge35" class="edge">
<title>DeleteBuildComponent&#45;&gt;MobabuildModule</title>
<path fill="none" stroke="black" d="M1333,-122.01C1333,-144.49 1333,-180 1333,-180 1333,-180 1160.69,-180 1160.69,-180"/>
<polygon fill="black" stroke="black" points="1160.69,-176.5 1150.69,-180 1160.69,-183.5 1160.69,-176.5"/>
</g>
<!-- EditBuildComponent -->
<g id="node36" class="node">
<title>EditBuildComponent</title>
<polygon fill="#ffffb3" stroke="black" points="1240.78,-122 1105.22,-122 1105.22,-86 1240.78,-86 1240.78,-122"/>
<text text-anchor="middle" x="1173" y="-99.8" font-family="Times,serif" font-size="14.00">EditBuildComponent</text>
</g>
<!-- EditBuildComponent&#45;&gt;MobabuildModule -->
<g id="edge36" class="edge">
<title>EditBuildComponent&#45;&gt;MobabuildModule</title>
<path fill="none" stroke="black" d="M1116.45,-122.11C1116.45,-122.11 1116.45,-140.99 1116.45,-140.99"/>
<polygon fill="black" stroke="black" points="1112.95,-140.99 1116.45,-150.99 1119.95,-140.99 1112.95,-140.99"/>
</g>
<!-- FavBuildPageComponent -->
<g id="node37" class="node">
<title>FavBuildPageComponent</title>
<polygon fill="#ffffb3" stroke="black" points="1087.16,-122 926.84,-122 926.84,-86 1087.16,-86 1087.16,-122"/>
<text text-anchor="middle" x="1007" y="-99.8" font-family="Times,serif" font-size="14.00">FavBuildPageComponent</text>
</g>
<!-- FavBuildPageComponent&#45;&gt;MobabuildModule -->
<g id="edge37" class="edge">
<title>FavBuildPageComponent&#45;&gt;MobabuildModule</title>
<path fill="none" stroke="black" d="M1058.42,-122.11C1058.42,-122.11 1058.42,-140.99 1058.42,-140.99"/>
<polygon fill="black" stroke="black" points="1054.92,-140.99 1058.42,-150.99 1061.92,-140.99 1054.92,-140.99"/>
</g>
<!-- ProfilePageComponent -->
<g id="node38" class="node">
<title>ProfilePageComponent</title>
<polygon fill="#ffffb3" stroke="black" points="908.14,-122 761.86,-122 761.86,-86 908.14,-86 908.14,-122"/>
<text text-anchor="middle" x="835" y="-99.8" font-family="Times,serif" font-size="14.00">ProfilePageComponent</text>
</g>
<!-- ProfilePageComponent&#45;&gt;MobabuildModule -->
<g id="edge38" class="edge">
<title>ProfilePageComponent&#45;&gt;MobabuildModule</title>
<path fill="none" stroke="black" d="M835,-122.24C835,-137.57 835,-157 835,-157 835,-157 1019.25,-157 1019.25,-157"/>
<polygon fill="black" stroke="black" points="1019.25,-160.5 1029.25,-157 1019.25,-153.5 1019.25,-160.5"/>
</g>
<!-- SearchBuildCardComponent -->
<g id="node39" class="node">
<title>SearchBuildCardComponent</title>
<polygon fill="#ffffb3" stroke="black" points="743.75,-122 566.25,-122 566.25,-86 743.75,-86 743.75,-122"/>
<text text-anchor="middle" x="655" y="-99.8" font-family="Times,serif" font-size="14.00">SearchBuildCardComponent</text>
</g>
<!-- SearchBuildCardComponent&#45;&gt;MobabuildModule -->
<g id="edge39" class="edge">
<title>SearchBuildCardComponent&#45;&gt;MobabuildModule</title>
<path fill="none" stroke="black" d="M655,-122.02C655,-139.37 655,-163 655,-163 655,-163 1019.06,-163 1019.06,-163"/>
<polygon fill="black" stroke="black" points="1019.06,-166.5 1029.06,-163 1019.06,-159.5 1019.06,-166.5"/>
</g>
<!-- SearchBuildComponent -->
<g id="node40" class="node">
<title>SearchBuildComponent</title>
<polygon fill="#ffffb3" stroke="black" points="548.04,-122 397.96,-122 397.96,-86 548.04,-86 548.04,-122"/>
<text text-anchor="middle" x="473" y="-99.8" font-family="Times,serif" font-size="14.00">SearchBuildComponent</text>
</g>
<!-- SearchBuildComponent&#45;&gt;MobabuildModule -->
<g id="edge40" class="edge">
<title>SearchBuildComponent&#45;&gt;MobabuildModule</title>
<path fill="none" stroke="black" d="M473,-122.11C473,-141.34 473,-169 473,-169 473,-169 1019.43,-169 1019.43,-169"/>
<polygon fill="black" stroke="black" points="1019.43,-172.5 1029.43,-169 1019.43,-165.5 1019.43,-172.5"/>
</g>
<!-- UserBuildPageComponent -->
<g id="node41" class="node">
<title>UserBuildPageComponent</title>
<polygon fill="#ffffb3" stroke="black" points="380.09,-122 213.91,-122 213.91,-86 380.09,-86 380.09,-122"/>
<text text-anchor="middle" x="297" y="-99.8" font-family="Times,serif" font-size="14.00">UserBuildPageComponent</text>
</g>
<!-- UserBuildPageComponent&#45;&gt;MobabuildModule -->
<g id="edge41" class="edge">
<title>UserBuildPageComponent&#45;&gt;MobabuildModule</title>
<path fill="none" stroke="black" d="M297,-122.28C297,-143.32 297,-175 297,-175 297,-175 1019.42,-175 1019.42,-175"/>
<polygon fill="black" stroke="black" points="1019.42,-178.5 1029.42,-175 1019.42,-171.5 1019.42,-178.5"/>
</g>
<!-- ViewBuildPageComponent -->
<g id="node42" class="node">
<title>ViewBuildPageComponent</title>
<polygon fill="#ffffb3" stroke="black" points="1776.98,-122 1607.02,-122 1607.02,-86 1776.98,-86 1776.98,-122"/>
<text text-anchor="middle" x="1692" y="-99.8" font-family="Times,serif" font-size="14.00">ViewBuildPageComponent</text>
</g>
<!-- ViewBuildPageComponent&#45;&gt;MobabuildModule -->
<g id="edge42" class="edge">
<title>ViewBuildPageComponent&#45;&gt;MobabuildModule</title>
<path fill="none" stroke="black" d="M1692,-122.38C1692,-146.28 1692,-185 1692,-185 1692,-185 1160.76,-185 1160.76,-185"/>
<polygon fill="black" stroke="black" points="1160.76,-181.5 1150.76,-185 1160.76,-188.5 1160.76,-181.5"/>
</g>
<!-- MobabuildRoutingModule -->
<g id="node44" class="node">
<title>MobabuildRoutingModule</title>
<polygon fill="#8dd3c7" stroke="black" points="190.11,-122 187.11,-126 166.11,-126 163.11,-122 23.89,-122 23.89,-86 190.11,-86 190.11,-122"/>
<text text-anchor="middle" x="107" y="-99.8" font-family="Times,serif" font-size="14.00">MobabuildRoutingModule</text>
</g>
<!-- MobabuildRoutingModule&#45;&gt;MobabuildModule -->
<g id="edge44" class="edge">
<title>MobabuildRoutingModule&#45;&gt;MobabuildModule</title>
<path fill="none" stroke="black" d="M107,-122.25C107,-145.02 107,-181 107,-181 107,-181 1019.25,-181 1019.25,-181"/>
<polygon fill="black" stroke="black" points="1019.25,-184.5 1029.25,-181 1019.25,-177.5 1019.25,-184.5"/>
</g>
<!-- Error404PageComponent -->
<g id="node45" class="node">
<title>Error404PageComponent</title>
<polygon fill="#ffffb3" stroke="black" points="6142.58,-122 5983.42,-122 5983.42,-86 6142.58,-86 6142.58,-122"/>
<text text-anchor="middle" x="6063" y="-99.8" font-family="Times,serif" font-size="14.00">Error404PageComponent</text>
</g>
<!-- Error404PageComponent&#45;&gt;SharedModule -->
<g id="edge46" class="edge">
<title>Error404PageComponent&#45;&gt;SharedModule</title>
<path fill="none" stroke="black" d="M6063,-122.11C6063,-141.34 6063,-169 6063,-169 6063,-169 5930.44,-169 5930.44,-169"/>
<polygon fill="black" stroke="black" points="5930.44,-165.5 5920.44,-169 5930.44,-172.5 5930.44,-165.5"/>
</g>
<!-- SharedRoutingModule -->
<g id="node47" class="node">
<title>SharedRoutingModule</title>
<polygon fill="#8dd3c7" stroke="black" points="5958.54,-122 5955.54,-126 5934.54,-126 5931.54,-122 5815.46,-122 5815.46,-86 5958.54,-86 5958.54,-122"/>
<text text-anchor="middle" x="5887" y="-99.8" font-family="Times,serif" font-size="14.00">SharedRoutingModule</text>
</g>
<!-- SharedRoutingModule&#45;&gt;SharedModule -->
<g id="edge48" class="edge">
<title>SharedRoutingModule&#45;&gt;SharedModule</title>
<path fill="none" stroke="black" d="M5871,-122.11C5871,-122.11 5871,-140.99 5871,-140.99"/>
<polygon fill="black" stroke="black" points="5867.5,-140.99 5871,-150.99 5874.5,-140.99 5867.5,-140.99"/>
</g>
</g>
</svg>
