<?xml version="1.0" encoding="UTF-8" standalone="no"?>
<!DOCTYPE svg PUBLIC "-//W3C//DTD SVG 1.1//EN"
 "http://www.w3.org/Graphics/SVG/1.1/DTD/svg11.dtd">
<!-- Generated by graphviz version 2.47.0 (20210316.0004)
 -->
<!-- Title: dependencies Pages: 1 -->
<svg width="2085pt" height="211pt"
 viewBox="0.00 0.00 2085.00 211.00" xmlns="http://www.w3.org/2000/svg" xmlns:xlink="http://www.w3.org/1999/xlink">
<g id="graph0" class="graph" transform="scale(1 1) rotate(0) translate(4 207)">
<title>dependencies</title>
<polygon fill="white" stroke="transparent" points="-4,4 -4,-207 2081,-207 2081,4 -4,4"/>
<text text-anchor="start" x="1017.51" y="-42.4" font-family="Times-12" font-weight="bold" font-size="14.00">Legend</text>
<polygon fill="#ffffb3" stroke="transparent" points="804.5,-10 804.5,-30 824.5,-30 824.5,-10 804.5,-10"/>
<text text-anchor="start" x="828.13" y="-15.4" font-family="Times-12" font-size="14.00"> &#160;Declarations</text>
<polygon fill="#8dd3c7" stroke="transparent" points="917.5,-10 917.5,-30 937.5,-30 937.5,-10 917.5,-10"/>
<text text-anchor="start" x="941.23" y="-15.4" font-family="Times-12" font-size="14.00"> &#160;Module</text>
<polygon fill="#80b1d3" stroke="transparent" points="1003.5,-10 1003.5,-30 1023.5,-30 1023.5,-10 1003.5,-10"/>
<text text-anchor="start" x="1027.28" y="-15.4" font-family="Times-12" font-size="14.00"> &#160;Bootstrap</text>
<polygon fill="#fdb462" stroke="transparent" points="1100.5,-10 1100.5,-30 1120.5,-30 1120.5,-10 1100.5,-10"/>
<text text-anchor="start" x="1124.17" y="-15.4" font-family="Times-12" font-size="14.00"> &#160;Providers</text>
<polygon fill="#fb8072" stroke="transparent" points="1196.5,-10 1196.5,-30 1216.5,-30 1216.5,-10 1196.5,-10"/>
<text text-anchor="start" x="1220.23" y="-15.4" font-family="Times-12" font-size="14.00"> &#160;Exports</text>
<g id="clust1" class="cluster">
<title>cluster_MobabuildModule</title>
<polygon fill="none" stroke="black" stroke-dasharray="1,5" points="8,-70 8,-195 2069,-195 2069,-70 8,-70"/>
</g>
<g id="clust2" class="cluster">
<title>cluster_MobabuildModule_declarations</title>
<polygon fill="none" stroke="black" points="331,-78 331,-130 2061,-130 2061,-78 331,-78"/>
</g>
<g id="clust13" class="cluster">
<title>cluster_MobabuildModule_imports</title>
<polygon fill="none" stroke="black" points="16,-78 16,-130 323,-130 323,-78 16,-78"/>
</g>
<!-- AddBuildPageComponent -->
<g id="node1" class="node">
<title>AddBuildPageComponent</title>
<polygon fill="#ffffb3" stroke="black" points="2052.77,-122 1889.23,-122 1889.23,-86 2052.77,-86 2052.77,-122"/>
<text text-anchor="middle" x="1971" y="-99.8" font-family="Times,serif" font-size="14.00">AddBuildPageComponent</text>
</g>
<!-- MobabuildModule -->
<g id="node11" class="node">
<title>MobabuildModule</title>
<polygon fill="#8dd3c7" stroke="black" points="1118.49,-187 1115.49,-191 1094.49,-191 1091.49,-187 997.51,-187 997.51,-151 1118.49,-151 1118.49,-187"/>
<text text-anchor="middle" x="1058" y="-164.8" font-family="Times,serif" font-size="14.00">MobabuildModule</text>
</g>
<!-- AddBuildPageComponent&#45;&gt;MobabuildModule -->
<g id="edge1" class="edge">
<title>AddBuildPageComponent&#45;&gt;MobabuildModule</title>
<path fill="none" stroke="black" d="M1971,-122.09C1971,-145.13 1971,-182 1971,-182 1971,-182 1128.61,-182 1128.61,-182"/>
<polygon fill="black" stroke="black" points="1128.61,-178.5 1118.61,-182 1128.61,-185.5 1128.61,-178.5"/>
</g>
<!-- Base64ToImagePipe -->
<g id="node2" class="node">
<title>Base64ToImagePipe</title>
<polygon fill="#ffffb3" stroke="black" points="1871.13,-122 1738.87,-122 1738.87,-86 1871.13,-86 1871.13,-122"/>
<text text-anchor="middle" x="1805" y="-99.8" font-family="Times,serif" font-size="14.00">Base64ToImagePipe</text>
</g>
<!-- Base64ToImagePipe&#45;&gt;MobabuildModule -->
<g id="edge2" class="edge">
<title>Base64ToImagePipe&#45;&gt;MobabuildModule</title>
<path fill="none" stroke="black" d="M1805,-122.28C1805,-143.32 1805,-175 1805,-175 1805,-175 1128.5,-175 1128.5,-175"/>
<polygon fill="black" stroke="black" points="1128.5,-171.5 1118.5,-175 1128.5,-178.5 1128.5,-171.5"/>
</g>
<!-- DeleteBuildComponent -->
<g id="node3" class="node">
<title>DeleteBuildComponent</title>
<polygon fill="#ffffb3" stroke="black" points="1720.48,-122 1571.52,-122 1571.52,-86 1720.48,-86 1720.48,-122"/>
<text text-anchor="middle" x="1646" y="-99.8" font-family="Times,serif" font-size="14.00">DeleteBuildComponent</text>
</g>
<!-- DeleteBuildComponent&#45;&gt;MobabuildModule -->
<g id="edge3" class="edge">
<title>DeleteBuildComponent&#45;&gt;MobabuildModule</title>
<path fill="none" stroke="black" d="M1646,-122.11C1646,-141.34 1646,-169 1646,-169 1646,-169 1128.71,-169 1128.71,-169"/>
<polygon fill="black" stroke="black" points="1128.71,-165.5 1118.71,-169 1128.71,-172.5 1128.71,-165.5"/>
</g>
<!-- EditBuildComponent -->
<g id="node4" class="node">
<title>EditBuildComponent</title>
<polygon fill="#ffffb3" stroke="black" points="1553.78,-122 1418.22,-122 1418.22,-86 1553.78,-86 1553.78,-122"/>
<text text-anchor="middle" x="1486" y="-99.8" font-family="Times,serif" font-size="14.00">EditBuildComponent</text>
</g>
<!-- EditBuildComponent&#45;&gt;MobabuildModule -->
<g id="edge4" class="edge">
<title>EditBuildComponent&#45;&gt;MobabuildModule</title>
<path fill="none" stroke="black" d="M1486,-122.02C1486,-139.37 1486,-163 1486,-163 1486,-163 1128.87,-163 1128.87,-163"/>
<polygon fill="black" stroke="black" points="1128.87,-159.5 1118.87,-163 1128.87,-166.5 1128.87,-159.5"/>
</g>
<!-- FavBuildPageComponent -->
<g id="node5" class="node">
<title>FavBuildPageComponent</title>
<polygon fill="#ffffb3" stroke="black" points="1400.16,-122 1239.84,-122 1239.84,-86 1400.16,-86 1400.16,-122"/>
<text text-anchor="middle" x="1320" y="-99.8" font-family="Times,serif" font-size="14.00">FavBuildPageComponent</text>
</g>
<!-- FavBuildPageComponent&#45;&gt;MobabuildModule -->
<g id="edge5" class="edge">
<title>FavBuildPageComponent&#45;&gt;MobabuildModule</title>
<path fill="none" stroke="black" d="M1320,-122.24C1320,-137.57 1320,-157 1320,-157 1320,-157 1128.77,-157 1128.77,-157"/>
<polygon fill="black" stroke="black" points="1128.77,-153.5 1118.77,-157 1128.77,-160.5 1128.77,-153.5"/>
</g>
<!-- ProfilePageComponent -->
<g id="node6" class="node">
<title>ProfilePageComponent</title>
<polygon fill="#ffffb3" stroke="black" points="1221.14,-122 1074.86,-122 1074.86,-86 1221.14,-86 1221.14,-122"/>
<text text-anchor="middle" x="1148" y="-99.8" font-family="Times,serif" font-size="14.00">ProfilePageComponent</text>
</g>
<!-- ProfilePageComponent&#45;&gt;MobabuildModule -->
<g id="edge6" class="edge">
<title>ProfilePageComponent&#45;&gt;MobabuildModule</title>
<path fill="none" stroke="black" d="M1096.59,-122.11C1096.59,-122.11 1096.59,-140.99 1096.59,-140.99"/>
<polygon fill="black" stroke="black" points="1093.09,-140.99 1096.59,-150.99 1100.09,-140.99 1093.09,-140.99"/>
</g>
<!-- SearchBuildCardComponent -->
<g id="node7" class="node">
<title>SearchBuildCardComponent</title>
<polygon fill="#ffffb3" stroke="black" points="1056.75,-122 879.25,-122 879.25,-86 1056.75,-86 1056.75,-122"/>
<text text-anchor="middle" x="968" y="-99.8" font-family="Times,serif" font-size="14.00">SearchBuildCardComponent</text>
</g>
<!-- SearchBuildCardComponent&#45;&gt;MobabuildModule -->
<g id="edge7" class="edge">
<title>SearchBuildCardComponent&#45;&gt;MobabuildModule</title>
<path fill="none" stroke="black" d="M1027.19,-122.11C1027.19,-122.11 1027.19,-140.99 1027.19,-140.99"/>
<polygon fill="black" stroke="black" points="1023.69,-140.99 1027.19,-150.99 1030.69,-140.99 1023.69,-140.99"/>
</g>
<!-- SearchBuildComponent -->
<g id="node8" class="node">
<title>SearchBuildComponent</title>
<polygon fill="#ffffb3" stroke="black" points="861.04,-122 710.96,-122 710.96,-86 861.04,-86 861.04,-122"/>
<text text-anchor="middle" x="786" y="-99.8" font-family="Times,serif" font-size="14.00">SearchBuildComponent</text>
</g>
<!-- SearchBuildComponent&#45;&gt;MobabuildModule -->
<g id="edge8" class="edge">
<title>SearchBuildComponent&#45;&gt;MobabuildModule</title>
<path fill="none" stroke="black" d="M786,-122.24C786,-137.57 786,-157 786,-157 786,-157 987.3,-157 987.3,-157"/>
<polygon fill="black" stroke="black" points="987.3,-160.5 997.3,-157 987.3,-153.5 987.3,-160.5"/>
</g>
<!-- UserBuildPageComponent -->
<g id="node9" class="node">
<title>UserBuildPageComponent</title>
<polygon fill="#ffffb3" stroke="black" points="693.09,-122 526.91,-122 526.91,-86 693.09,-86 693.09,-122"/>
<text text-anchor="middle" x="610" y="-99.8" font-family="Times,serif" font-size="14.00">UserBuildPageComponent</text>
</g>
<!-- UserBuildPageComponent&#45;&gt;MobabuildModule -->
<g id="edge9" class="edge">
<title>UserBuildPageComponent&#45;&gt;MobabuildModule</title>
<path fill="none" stroke="black" d="M610,-122.02C610,-139.37 610,-163 610,-163 610,-163 987.11,-163 987.11,-163"/>
<polygon fill="black" stroke="black" points="987.11,-166.5 997.11,-163 987.11,-159.5 987.11,-166.5"/>
</g>
<!-- ViewBuildPageComponent -->
<g id="node10" class="node">
<title>ViewBuildPageComponent</title>
<polygon fill="#ffffb3" stroke="black" points="508.98,-122 339.02,-122 339.02,-86 508.98,-86 508.98,-122"/>
<text text-anchor="middle" x="424" y="-99.8" font-family="Times,serif" font-size="14.00">ViewBuildPageComponent</text>
</g>
<!-- ViewBuildPageComponent&#45;&gt;MobabuildModule -->
<g id="edge10" class="edge">
<title>ViewBuildPageComponent&#45;&gt;MobabuildModule</title>
<path fill="none" stroke="black" d="M424,-122.11C424,-141.34 424,-169 424,-169 424,-169 987.5,-169 987.5,-169"/>
<polygon fill="black" stroke="black" points="987.5,-172.5 997.5,-169 987.5,-165.5 987.5,-172.5"/>
</g>
<!-- MaterialModule -->
<g id="node12" class="node">
<title>MaterialModule</title>
<polygon fill="#8dd3c7" stroke="black" points="315.47,-122 312.47,-126 291.47,-126 288.47,-122 208.53,-122 208.53,-86 315.47,-86 315.47,-122"/>
<text text-anchor="middle" x="262" y="-99.8" font-family="Times,serif" font-size="14.00">MaterialModule</text>
</g>
<!-- MaterialModule&#45;&gt;MobabuildModule -->
<g id="edge11" class="edge">
<title>MaterialModule&#45;&gt;MobabuildModule</title>
<path fill="none" stroke="black" d="M262,-122.28C262,-143.32 262,-175 262,-175 262,-175 987.19,-175 987.19,-175"/>
<polygon fill="black" stroke="black" points="987.19,-178.5 997.19,-175 987.19,-171.5 987.19,-178.5"/>
</g>
<!-- MobabuildRoutingModule -->
<g id="node13" class="node">
<title>MobabuildRoutingModule</title>
<polygon fill="#8dd3c7" stroke="black" points="190.11,-122 187.11,-126 166.11,-126 163.11,-122 23.89,-122 23.89,-86 190.11,-86 190.11,-122"/>
<text text-anchor="middle" x="107" y="-99.8" font-family="Times,serif" font-size="14.00">MobabuildRoutingModule</text>
</g>
<!-- MobabuildRoutingModule&#45;&gt;MobabuildModule -->
<g id="edge12" class="edge">
<title>MobabuildRoutingModule&#45;&gt;MobabuildModule</title>
<path fill="none" stroke="black" d="M107,-122.09C107,-145.13 107,-182 107,-182 107,-182 987.43,-182 987.43,-182"/>
<polygon fill="black" stroke="black" points="987.43,-185.5 997.43,-182 987.43,-178.5 987.43,-185.5"/>
</g>
</g>
</svg>
